<svg width="44" height="40" viewBox="0 0 44 40" fill="none" xmlns="http://www.w3.org/2000/svg">
<g id="Group 24">
<path id="Path" d="M11.0704 0C8.35208 0 6.14018 2.19173 6.14018 4.87553L5.96094 30.1542L8.65014 30.1734L8.82946 4.8854C8.82946 3.67435 9.83478 2.6892 11.0705 2.6892H38.0971V0H11.0704Z" fill="#9EABB2"/>
<path id="Shape" fill-rule="evenodd" clip-rule="evenodd" d="M32.9877 5.10954C32.9877 2.29207 35.2798 0 38.0972 0C40.9147 0 43.2068 2.29207 43.2068 5.10945V11.1154C43.2068 11.8581 42.6048 12.46 41.8621 12.46H35.6769V33.4807C35.6769 37.0148 32.8017 39.89 29.2676 39.89C25.7335 39.89 22.8583 37.0148 22.8583 33.4807V31.5534H2.6892V33.4808C2.6892 35.5317 4.35789 37.2008 6.40928 37.2008V39.89C2.87519 39.89 0 37.0149 0 33.4808V30.2089C0 29.4662 0.601941 28.8642 1.34464 28.8642H24.2029C24.9456 28.8642 25.5475 29.4662 25.5475 30.2089V33.4808C25.5475 35.5317 27.2166 37.2008 29.2676 37.2008C31.3186 37.2008 32.9877 35.5317 32.9877 33.4808V5.10954ZM35.677 5.10945V9.7708H40.5175V5.10945C40.5175 3.77477 39.4315 2.6892 38.0972 2.6892C36.763 2.6892 35.677 3.77468 35.677 5.10945Z" fill="#9EABB2"/>
<rect id="Rectangle" x="6.14014" y="37.2007" width="22.8131" height="2.6892" fill="#9EABB2"/>
<path id="Path_2" d="M19.9901 7.48499H13.0429C12.3002 7.48499 11.6982 8.08693 11.6982 8.82963C11.6982 9.57233 12.3002 10.1743 13.0429 10.1743H19.9901C20.7328 10.1743 21.3347 9.57233 21.3347 8.82963C21.3347 8.08693 20.7327 7.48499 19.9901 7.48499Z" fill="#9EABB2"/>
<path id="Path_3" d="M28.0577 12.8634H13.0429C12.3002 12.8634 11.6982 13.4653 11.6982 14.208C11.6982 14.9507 12.3002 15.5527 13.0429 15.5527H28.0577C28.8004 15.5527 29.4023 14.9507 29.4023 14.208C29.4023 13.4653 28.8004 12.8634 28.0577 12.8634Z" fill="#9EABB2"/>
<path id="Path_4" d="M28.0577 18.2418H13.0429C12.3002 18.2418 11.6982 18.8437 11.6982 19.5864C11.6982 20.3291 12.3002 20.931 13.0429 20.931H28.0577C28.8004 20.931 29.4023 20.3295 29.4023 19.5864C29.4023 18.8437 28.8004 18.2418 28.0577 18.2418Z" fill="#9EABB2"/>
<path id="Path_5" d="M28.0577 23.6202H13.0429C12.3002 23.6202 11.6982 24.2222 11.6982 24.9649C11.6982 25.7076 12.3002 26.3095 13.0429 26.3095H28.0577C28.8004 26.3095 29.4023 25.7076 29.4023 24.9649C29.4023 24.2222 28.8004 23.6202 28.0577 23.6202Z" fill="#9EABB2"/>
</g>
</svg>
